<?xml version="1.0" encoding="utf-8"?>
<!-- Generator: Adobe Illustrator 22.1.0, SVG Export Plug-In . SVG Version: 6.00 Build 0)  -->
<svg version="1.1" id="Layer_1" xmlns="http://www.w3.org/2000/svg" xmlns:xlink="http://www.w3.org/1999/xlink" x="0px" y="0px"
	 viewBox="0 0 1169 714" style="enable-background:new 0 0 1169 714;" xml:space="preserve">
<style type="text/css">
	.st0{fill:#FFFFFF;}
</style>
<path class="st0" d="M833.3,161.3l-9.5-7.8l7.1-10l9.6-13.5c6.9-14.3,3-31.7-9.4-41.8l-73.7-59.6c-4.6-3.8-10.3-6.3-16.3-7.2
	c-12.4-2-24.8,2.7-32.4,12.4v0.1V34L331.6,499.9l-50.3,192.4l177.6-89.1l335.7-414.8l8.2-10.1l10.1,8.2l19.9,16.1l10.1,8.2
	l-8.2,10.1L719.6,363.2l25.3,20.5l143.9-177.8L833.3,161.3z M423.1,584.6l-66.4,33.3l-25.7,13l7.2-27.9l18.8-71.9l5.1-19.5
	l15.7,12.8l47.7,38.7l15.7,12.8L423.1,584.6z M732.4,213.6L468.8,539.2l-8.2,10.1l-10.1-8.2l-56.6-45.8l-10.1-8.2l8.1-10.1
	l263.4-325.6l8.2-10.1l10.1,8.2l56.6,45.8l10.1,8.1L732.4,213.6z M804.1,125l-34.9,43l-8.2,10.1l-10.1-8.2l-56.6-45.8l-10.1-8.2
	l8.1-10.1l34.9-43l8.2-10.1l10.1,8.2l56.6,45.8l10.1,8.2L804.1,125z"/>
</svg>
