<?xml version="1.0" encoding="utf-8"?>
<!-- Generator: Adobe Illustrator 22.1.0, SVG Export Plug-In . SVG Version: 6.00 Build 0)  -->
<svg version="1.1" id="Layer_1" xmlns="http://www.w3.org/2000/svg" xmlns:xlink="http://www.w3.org/1999/xlink" x="0px" y="0px"
	 viewBox="0 0 1169 714" style="enable-background:new 0 0 1169 714;" xml:space="preserve">
<style type="text/css">
	.st0{fill:#FFFFFF;}
</style>
<g>
	<path class="st0" d="M1141.8,587.5h-66.3c0-0.9,0.1-1.8,0.1-2.7V69.4c0-28.2-23-51.2-51.2-51.2H145.6c-28.2,0-51.2,23-51.2,51.2
		v515.4c0,0.9,0,1.8,0.1,2.7H28.2c-8.8,0-16,7.2-16,16v53.4c0,21.5,22.2,38.3,50.6,38.3h1044.3c28.4,0,50.6-16.8,50.6-38.3v-53.4
		C1157.8,594.6,1150.5,587.5,1141.8,587.5z M1107.1,663.1H62.8c-11.1,0-17.7-4.6-18.6-6.5v-37.1H108h953.9h63.8v37.1
		C1124.8,658.6,1118.2,663.1,1107.1,663.1z M126.4,584.8V69.4c0-10.6,8.6-19.2,19.2-19.2h878.6c10.6,0,19.2,8.6,19.2,19.2v515.4
		c0,0.9-0.1,1.8-0.2,2.7H126.6C126.5,586.6,126.4,585.7,126.4,584.8z"/>
	<path class="st0" d="M991.3,91H178.5c-2.6,0-4.7,2.1-4.7,4.7v454.6c0,2.6,2.1,4.7,4.7,4.7h812.8c2.6,0,4.7-2.1,4.7-4.7V95.7
		C996.1,93.1,993.9,91,991.3,91z M986.6,545.7H183.2V100.5h803.4V545.7z"/>
</g>
</svg>
