<?xml version="1.0" encoding="utf-8"?>
<!-- Generator: Adobe Illustrator 22.1.0, SVG Export Plug-In . SVG Version: 6.00 Build 0)  -->
<svg version="1.1" id="Layer_1" xmlns="http://www.w3.org/2000/svg" xmlns:xlink="http://www.w3.org/1999/xlink" x="0px" y="0px"
	 viewBox="0 0 198.4 198.4" style="enable-background:new 0 0 198.4 198.4;" xml:space="preserve">
<style type="text/css">
	.st0{fill:#FFFFFF;}
</style>
<circle cx="99.2" cy="98.7" r="96.4"/>
<g>
	<path class="st0" d="M99.3,58.4c-3.2,0-5.8-1-8.1-2.9c-2.2-1.9-3.4-4.7-3.4-8.2c0-3.2,1.1-5.9,3.4-7.9c2.3-2.1,5-3.1,8-3.1
		c2.9,0,5.5,0.9,7.8,2.8c2.3,1.9,3.4,4.6,3.4,8.2c0,3.5-1.1,6.2-3.3,8.2C104.9,57.4,102.3,58.4,99.3,58.4z M110.5,81.8v65.5
		c0,4.5-1.1,8-3.2,10.3c-2.2,2.3-4.9,3.5-8.2,3.5s-6-1.2-8.1-3.6c-2.1-2.4-3.1-5.8-3.1-10.2V82.5c0-4.5,1-7.9,3.1-10.1
		C93,70.1,95.7,69,99,69s6.1,1.1,8.2,3.4C109.4,74.6,110.5,77.8,110.5,81.8z"/>
</g>
</svg>
